<svg version="1.1" id="Layer_1" xmlns="http://www.w3.org/2000/svg" xmlns:xlink="http://www.w3.org/1999/xlink" x="0px" y="0px" viewBox="0 0 86.7 86.9" style="enable-background:new 0 0 86.7 86.9;" xml:space="preserve">
 <style type="text/css">
  .st0{fill:#FFFFFF;}
	.st1{fill:#006341;}
 </style>
 <g>
  <circle class="st0" cx="43.3" cy="43.3" r="43.3">
  </circle>
  <path class="st1" d="M47.7,18.7c-0.4-0.1-2.2-0.4-4.4-0.4c-2.1,0-4,0.3-4.4,0.4c-0.2,0-0.3-0.2-0.1-0.3c0.2-0.1,4.5-3.4,4.5-3.4
		l4.5,3.4C48,18.6,47.9,18.8,47.7,18.7z M40.2,40.2c0,0-0.2,0.1-0.3,0.3c0.9,0.7,1.5,2.3,3.4,2.3s2.5-1.6,3.4-2.3
		c-0.1-0.2-0.3-0.3-0.3-0.3s-1.2,0.3-3.1,0.3S40.2,40.2,40.2,40.2z M43.3,37.5c-0.5,0-0.6-0.2-1-0.2c-0.3,0-1,0.3-1.2,0.5
		c0,0.1,0.1,0.2,0.1,0.3c0.8,0.1,1.1,0.5,2,0.5s1.2-0.4,2-0.5c0.1-0.1,0.1-0.2,0.1-0.3c-0.1-0.2-0.8-0.5-1.2-0.5
		C44,37.3,43.9,37.5,43.3,37.5z M86.6,45.7c-0.1,1-0.1,2.1-0.3,3.1c-4.9,0.8-6.7-3.6-11.7-3.3c0.3,1.1,0.5,2.2,0.7,3.3
		c4.1,0,5.8,3.9,10.4,3.3c-0.2,1.2-0.5,2.4-0.9,3.5c-3.6,0.4-4.9-3.3-9.2-3.2c0,0.6,0.1,1.2,0.1,1.8l0,1l8.2,3.1
		c-0.4,1.2-0.9,2.3-1.4,3.4c-2.5-0.1-3.3-3.3-7.1-3c-0.1,0.8-0.3,1.6-0.4,2.4c3.3-0.2,4,2.8,6.3,3c-0.6,1.1-1.2,2.1-1.9,3.2
		c-1.4-0.7-2.6-3-5.2-3.1c0.3-0.8,0.5-1.7,0.7-2.5c-2.3,0-5-0.9-7.2-2.9c0.7-4.1-5.7-8.3-5.7-11.3c0-3.3,1.7-5.1,1.7-9.5
		c0-3.3-1.6-6.8-4-9.2c-0.5-0.5-0.9-0.9-1.5-1.2c2.2,2.7,3.9,6,3.9,9.7c0,4.2-1.9,6.3-1.9,10.2c0,3.8,5.6,7.1,5.6,11.1
		c0,1.6-0.5,3.1-2.1,6.1c2.5,2.5,5.8,3.9,7.9,3.9c0.7,0,1.1-0.2,1.3-0.7c0.2-0.5,0.4-0.9,0.6-1.4c2.3,0.1,3.3,2.2,4.6,3
		c-0.7,0.9-1.4,1.8-2.2,2.7c-0.8-0.9-2-2.5-3.6-2.9c-0.3,0.6-0.6,1.1-0.9,1.7c1.4,0.4,2.4,1.8,3.2,2.8c-0.8,0.8-1.7,1.7-2.6,2.4
		c-0.6-0.9-1.4-2-2.4-2.5c-0.4,0.5-0.7,1-1.1,1.4c0.8,0.6,1.5,1.6,2,2.4c-1,0.8-2.1,1.6-3.2,2.3c-0.5-4.4-6.5-7.4-4.9-12.5
		c-0.5,0.9-1.2,2-1.2,3.4c0,3.7,3.9,6.6,4.3,10.3c-0.8,0.5-1.7,0.9-2.5,1.4c-0.1-4-4.3-8.5-4.3-11.8c0-3.7,4.8-7.4,4.8-11.8
		c0-4.4-5.6-7.4-5.6-11.2c0-3.8,2.4-6,2.4-11c0-3.6-1.7-7.2-4.4-9.6c-0.5-0.4-0.9-0.7-1.5-1c2.5,3,3.9,5.7,3.9,9.8
		c0,4.6-2.7,7.2-2.7,11.7c0,4.5,5.5,7,5.5,11.3s-5.1,7.8-5.1,12.1c0,3.9,4.5,7.9,4.6,12.6c-1,0.4-2,0.8-3,1.2
		c0.6-4.7-4.5-9.6-4.5-13.5c0-4.2,5.3-7.8,5.3-12.4c0-4.5-5.4-6.7-5.4-11.3c0-4.7,3.3-7.2,3.3-12.4c0-4-2-7.6-4.9-9.9l-0.2-0.1
		c-0.3-0.2-0.5,0-0.3,0.3c2.1,2.6,3.1,5.2,3.1,9c0,4.7-3.8,8.5-3.8,13.1c0,5.4,5.1,6.9,5.1,11.4c0,4.4-5.5,8-5.5,12.7
		c0,4.4,5.2,9.2,4.3,14.2c-1,0.3-2.1,0.5-3.2,0.7c1-6.3-4.1-10.8-4.1-14.8c0-4.4,5.7-8.4,5.7-12.7c0-4.1-4.1-5.4-4.6-9.6
		c-0.1-0.6-0.5-1-1.2-0.9c-0.8,0.2-1.9,0.7-3.5,0.7s-2.7-0.5-3.5-0.7c-0.6-0.1-1.1,0.3-1.2,0.9C38.1,53,34,54.4,34,58.4
		c0,4.3,5.7,8.3,5.7,12.7c0,4.1-5.1,8.6-4.1,14.8c-1.1-0.2-2.1-0.4-3.2-0.7c-0.9-5,4.3-9.9,4.3-14.2c0-4.7-5.5-8.2-5.5-12.7
		c0-4.4,5.1-6,5.1-11.4c0-4.6-3.8-8.4-3.8-13.1c0-3.8,1.1-6.4,3.1-9c0.2-0.2,0-0.5-0.3-0.3l-0.2,0.1c-2.9,2.2-4.9,5.8-4.9,9.9
		c0,5.2,3.3,7.7,3.3,12.4c0,4.7-5.4,6.8-5.4,11.3c0,4.5,5.3,8.2,5.3,12.4c0,3.9-5.1,8.7-4.5,13.5c-1-0.4-2-0.7-3-1.2
		c0.1-4.7,4.6-8.6,4.6-12.6c0-4.3-5.1-7.9-5.1-12.1S31,51.7,31,47.2c0-4.5-2.7-7.1-2.7-11.7c0-4.1,1.4-6.8,3.9-9.8
		c-0.6,0.3-1,0.6-1.5,1c-2.6,2.3-4.4,6-4.4,9.6c0,4.9,2.4,7.1,2.4,11c0,3.8-5.6,6.9-5.6,11.2c0,4.4,4.8,8.1,4.8,11.8
		c0,3.3-4.2,7.7-4.3,11.8c-0.9-0.4-1.7-0.9-2.5-1.4c0.3-3.7,4.3-6.6,4.3-10.3c0-1.4-0.6-2.5-1.2-3.4c1.6,5.1-4.4,8.1-4.9,12.5
		c-1.1-0.7-2.2-1.5-3.2-2.3c0.5-0.8,1.2-1.8,2-2.4c-0.4-0.5-0.8-0.9-1.1-1.4c-1,0.6-1.8,1.7-2.4,2.5c-0.9-0.8-1.7-1.6-2.6-2.4
		c0.8-1,1.7-2.4,3.2-2.8c-0.3-0.6-0.6-1.1-0.9-1.7c-1.7,0.4-2.8,2-3.6,2.9C10,71,9.2,70.1,8.6,69.2c1.3-0.8,2.3-2.9,4.6-3
		c0.2,0.5,0.4,0.9,0.6,1.4c0.2,0.5,0.6,0.7,1.3,0.7c2.1,0,5.4-1.4,7.9-3.9c-1.6-3-2.1-4.5-2.1-6.1c0-4,5.6-7.3,5.6-11.1
		s-1.9-6-1.9-10.2c0-3.7,1.7-7,3.9-9.7c-0.5,0.3-1,0.7-1.5,1.2c-2.4,2.4-4,6-4,9.2c0,4.4,1.7,6.2,1.7,9.5c0,3-6.4,7.2-5.7,11.3
		c-2.2,2-4.9,2.9-7.2,2.9c0.2,0.9,0.4,1.7,0.7,2.5c-2.6,0.1-3.8,2.4-5.2,3.1c-0.7-1-1.3-2.1-1.9-3.2c2.3-0.2,3-3.2,6.3-3
		c-0.2-0.8-0.3-1.6-0.4-2.4c-3.7-0.3-4.6,2.9-7.1,3c-0.5-1.1-1-2.3-1.4-3.4l8.2-3.1l0-1c0-0.6,0-1.2,0.1-1.8
		c-4.2-0.1-5.5,3.5-9.2,3.2c-0.3-1.2-0.6-2.3-0.9-3.5c4.6,0.6,6.3-3.3,10.4-3.3c0.2-1.1,0.4-2.2,0.7-3.3c-5-0.2-6.8,4.2-11.7,3.3
		c-0.1-1-0.2-2-0.3-3.1c5.7,0.6,7.8-4.1,13-3.5c0.5-1.2,1.1-2.4,1.7-3.6C8.3,37.5,6.1,42.9,0,42.1C0.7,18.7,19.8,0,43.3,0
		S86,18.7,86.7,42.1c-6.1,0.8-8.3-4.6-14.8-3.5c0.6,1.2,1.2,2.4,1.7,3.6C78.8,41.7,80.9,46.4,86.6,45.7L86.6,45.7z M24.7,27.5
		c-3.2-1.3-7.1-1-10.4,1.1c-0.5-3.1-2.2-5.8-4.5-7.4c-0.3-0.2-0.7,0-0.6,0.4c0.5,6.5-3.3,12.1-8,17.1c4.8,1.4,8.9-4.7,15.1-2.6
		C18.6,32.7,21.4,29.8,24.7,27.5z M43.3,23.6c-4,0-7.4,2.3-8.3,5.2c-0.1,0.2,0,0.4,0.3,0.3c0.7-0.3,1.5-0.5,2.4-0.5
		c1.6,0,3.1,0.6,3.9,1.7c0.4,1.2,0.4,3.1,0,4.1c-0.7-0.2-0.9-0.7-1.6-0.7s-1.2,0.5-2.3,0.5c-1.1,0-1.2-0.5-2-0.5c-0.9,0-1,0.9-1,1.9
		c0,4.5,4.1,10.7,8.5,10.7c4.4,0,8.5-6.2,8.5-10.7c0-1-0.2-1.9-1.1-2c-0.5,0.3-0.9,0.6-1.9,0.6c-1.1,0-1.4-0.5-2.1-0.5
		c-0.8,0-0.7,1.7-1.7,1.8c-0.6-1.5-0.7-3.5-0.1-5.2c0.9-1,2.3-1.7,3.9-1.7c0.9,0,1.7,0.2,2.4,0.5c0.3,0.1,0.4,0,0.3-0.3
		C50.7,25.9,47.4,23.6,43.3,23.6L43.3,23.6z M49.8,30.1c-1,0-2.1,0.3-2.8,1.1c-0.1,0.2-0.1,0.5,0,0.7c1.7-0.6,3.3-0.6,4,0.2
		c0.4-0.4,0.5-0.7,0.5-1.1C51.5,30.5,50.9,30.1,49.8,30.1z M35.7,32.1c0.8-0.8,2.6-0.8,4.5-0.1c0.1-0.9-1.6-1.9-3.2-1.9
		c-1.2,0-1.8,0.4-1.8,1C35.2,31.4,35.3,31.7,35.7,32.1z M63.4,16.9c-3.2,0.2-5.9,1.3-8.2,3.1c0.9-2.7,2.2-5,3.7-7.3
		c-4,0.4-7.4,1.9-9.9,4.4l-1.9-5.1l4.3-3.8l-5.7-0.4l-2.3-5.3l-2.3,5.3l-5.7,0.4l4.3,3.8l-1.9,5.1c-2.5-2.5-5.9-4-9.9-4.4
		c1.5,2.3,2.7,4.6,3.7,7.3c-2.2-1.8-5-2.9-8.2-3.1c1.9,2.5,3.6,5.1,4.8,7.9c0.1,0.3,0.4,0.4,0.8,0.3c4.4-2.2,9.3-3.4,14.4-3.4
		s10.1,1.2,14.4,3.4c0.3,0.2,0.6,0.1,0.8-0.3C59.8,22,61.5,19.4,63.4,16.9z M70.3,36.1c6.2-2.2,10.3,4,15.1,2.6
		c-4.7-5-8.5-10.6-8-17.1c0-0.4-0.3-0.6-0.6-0.4c-2.4,1.6-4,4.4-4.5,7.4c-3.3-2.1-7.2-2.4-10.4-1.1C65.3,29.8,68.1,32.7,70.3,36.1z">
  </path>
  <g>
   <path class="st1" d="M76,80.9h-2.2v5.9H73v-5.9h-2.2v-0.7H76V80.9z M76.9,80.2h1.2l2.3,5.2h0l2.3-5.2h1.2v6.7H83v-5.6h0l-2.4,5.6
			h-0.5l-2.4-5.6h0v5.6h-0.8L76.9,80.2L76.9,80.2z">
   </path>
  </g>
 </g>
</svg>